<svg xmlns="http://www.w3.org/2000/svg" width="1024" height="1024" viewBox="0 0 64 64" fill="none" role="img" aria-labelledby="title desc">
  <title id="title">Velostra Crystal V on dark tile</title>
  <desc id="desc">Editable faceted Crystal V symbol representing verified execution and settlement.</desc>
  <defs>
    <linearGradient id="left" x1="7" y1="7" x2="31" y2="58" gradientUnits="userSpaceOnUse"><stop stop-color="#DFFF78"/><stop offset=".48" stop-color="#9EE12F"/><stop offset="1" stop-color="#477A09"/></linearGradient>
    <linearGradient id="right" x1="57" y1="7" x2="33" y2="58" gradientUnits="userSpaceOnUse"><stop stop-color="#F0FF9C"/><stop offset=".46" stop-color="#B9F64B"/><stop offset="1" stop-color="#5E950D"/></linearGradient>
    <filter id="glow" x="-80%" y="-600%" width="260%" height="1300%"><feGaussianBlur stdDeviation="1"/></filter>
  </defs>
  <rect width="64" height="64" rx="14" fill="#06090B"/><g id="settlement-glow"><ellipse cx="32" cy="59.4" rx="13" ry="1.35" fill="#C4FF63" opacity=".34" filter="url(#glow)"/></g>
  <g id="crystal-wings" stroke="#EFFFBD" stroke-opacity=".72" stroke-width=".62" stroke-linejoin="round">
    <path id="left-wing" d="M6.5 6.5 24.4 21.2 30.8 36.2 30.8 58 20.5 47.2 12.7 28.7Z" fill="url(#left)"/>
    <path id="right-wing" d="m57.5 6.5-17.9 14.7-6.4 15V58l10.3-10.8 7.8-18.5Z" fill="url(#right)"/>
  </g>
  <g id="crystal-facets">
    <path d="m6.5 6.5 17.9 14.7-7-2.5Z" fill="#F5FFCE" fill-opacity=".28"/><path d="m24.4 21.2 6.4 15-8.7-6.8Z" fill="#305B04" fill-opacity=".24"/><path d="m22.1 29.4 8.7 6.8V58L20.5 47.2Z" fill="#040A02" fill-opacity=".34"/>
    <path d="m57.5 6.5-17.9 14.7 7-2.5Z" fill="#F5FFCE" fill-opacity=".28"/><path d="m39.6 21.2-6.4 15 8.7-6.8Z" fill="#305B04" fill-opacity=".24"/><path d="m41.9 29.4-8.7 6.8V58l10.3-10.8Z" fill="#040A02" fill-opacity=".34"/>
  </g>
  <g id="facet-ridges" fill="none" stroke="#F8FFE0" stroke-opacity=".74" stroke-width=".62" stroke-linecap="round" stroke-linejoin="round"><path d="M6.5 6.5 22.1 29.4 30.8 58M24.4 21.2l-11.7 7.5 7.8 18.5M57.5 6.5 41.9 29.4 33.2 58M39.6 21.2l11.7 7.5-7.8 18.5"/></g>
  <g id="safe-area-guides" display="none"><rect x="1" y="1" width="62" height="62" rx="15" stroke="#FF4FD8" stroke-width=".35" stroke-dasharray="1 1"/><path d="M32 0v64M0 32h64" stroke="#59D8FF" stroke-width=".25" stroke-dasharray="1 1"/></g>
</svg>