<svg xmlns="http://www.w3.org/2000/svg" viewBox="0 0 64 64" fill="none">
  <defs>
    <linearGradient id="left" x1="10" y1="10" x2="30" y2="54" gradientUnits="userSpaceOnUse">
      <stop stop-color="#E8FF91"/>
      <stop offset=".46" stop-color="#AEF13B"/>
      <stop offset="1" stop-color="#4F8508"/>
    </linearGradient>
    <linearGradient id="right" x1="54" y1="10" x2="34" y2="54" gradientUnits="userSpaceOnUse">
      <stop stop-color="#F3FFA8"/>
      <stop offset=".46" stop-color="#C4FF52"/>
      <stop offset="1" stop-color="#669E10"/>
    </linearGradient>
  </defs>
  <rect x="2" y="2" width="60" height="60" rx="14" fill="#06090B"/>
  <path d="M10 10 25 22.5 30.5 35v19L21 44.5 14.5 28Z" fill="url(#left)" stroke="#EDFFC0" stroke-width="1.25" stroke-linejoin="round"/>
  <path d="m54 10-15 12.5L33.5 35v19l9.5-9.5L49.5 28Z" fill="url(#right)" stroke="#F3FFCA" stroke-width="1.25" stroke-linejoin="round"/>
  <path d="m10 10 12.7 19.6L30.5 54M25 22.5 14.5 28m39.5-18L41.3 29.6 33.5 54M39 22.5 49.5 28" stroke="#FBFFE8" stroke-opacity=".82" stroke-width="1.15" stroke-linecap="round" stroke-linejoin="round"/>
  <path d="m22.7 29.6 7.8 5.4v19L21 44.5Z" fill="#102302" fill-opacity=".48"/>
  <path d="m41.3 29.6-7.8 5.4v19l9.5-9.5Z" fill="#193504" fill-opacity=".4"/>
  <ellipse cx="32" cy="56.8" rx="8.5" ry="1.1" fill="#C9FF5F" fill-opacity=".38"/>
</svg>
