<svg xmlns="http://www.w3.org/2000/svg" viewBox="0 0 64 64" fill="none"><defs><linearGradient id="l" x1="7" y1="7" x2="31" y2="58" gradientUnits="userSpaceOnUse"><stop stop-color="#DFFF78"/><stop offset=".48" stop-color="#9EE12F"/><stop offset="1" stop-color="#477A09"/></linearGradient><linearGradient id="r" x1="57" y1="7" x2="33" y2="58" gradientUnits="userSpaceOnUse"><stop stop-color="#F0FF9C"/><stop offset=".46" stop-color="#B9F64B"/><stop offset="1" stop-color="#5E950D"/></linearGradient></defs><rect width="64" height="64" rx="14" fill="#06090B"/><path d="M6.5 6.5 24.4 21.2 30.8 36.2 30.8 58 20.5 47.2 12.7 28.7Z" fill="url(#l)" stroke="#EFFFBD" stroke-width=".62"/><path d="m57.5 6.5-17.9 14.7-6.4 15V58l10.3-10.8 7.8-18.5Z" fill="url(#r)" stroke="#EFFFBD" stroke-width=".62"/><path d="m6.5 6.5 17.9 14.7-7-2.5Zm17.9 14.7 6.4 15-8.7-6.8Zm33.1-14.7-17.9 14.7 7-2.5Zm-17.9 14.7-6.4 15 8.7-6.8Z" fill="#F5FFCE" fill-opacity=".26"/><path d="M6.5 6.5 22.1 29.4 30.8 58M24.4 21.2l-11.7 7.5 7.8 18.5M57.5 6.5 41.9 29.4 33.2 58M39.6 21.2l11.7 7.5-7.8 18.5" stroke="#F8FFE0" stroke-opacity=".74" stroke-width=".62"/></svg>